<svg width="214" height="214" viewBox="0 0 214 214" fill="none" xmlns="http://www.w3.org/2000/svg">
<rect width="214" height="214" fill="#DDD6D6"/>
<path d="M48.888 118V98.032H61.112V100.016H51V106.576H59.352V108.624H51V116.016H61.016V118H48.888ZM66.552 109.008V106.864H75.512V109.008H66.552ZM86.072 118L80.28 103.376H82.584L87.096 114.832L89.464 109.424C89.976 108.251 90.3813 107.163 90.68 106.16C91 105.157 91.2347 104.229 91.384 103.376H93.56C93.3893 104.272 93.1227 105.253 92.76 106.32C92.3973 107.387 91.9493 108.539 91.416 109.776L87.864 118H86.072ZM103 118.256C101.677 118.256 100.504 117.936 99.48 117.296C98.4773 116.635 97.688 115.739 97.112 114.608C96.536 113.456 96.248 112.144 96.248 110.672C96.248 109.179 96.536 107.867 97.112 106.736C97.688 105.584 98.4773 104.688 99.48 104.048C100.504 103.387 101.677 103.056 103 103.056C104.323 103.056 105.485 103.387 106.488 104.048C107.512 104.688 108.312 105.584 108.888 106.736C109.464 107.867 109.752 109.179 109.752 110.672C109.752 112.144 109.464 113.456 108.888 114.608C108.312 115.739 107.512 116.635 106.488 117.296C105.485 117.936 104.323 118.256 103 118.256ZM103 116.336C103.853 116.336 104.6 116.091 105.24 115.6C105.88 115.109 106.381 114.437 106.744 113.584C107.128 112.731 107.32 111.749 107.32 110.64C107.32 108.976 106.915 107.621 106.104 106.576C105.293 105.509 104.259 104.976 103 104.976C101.741 104.976 100.707 105.509 99.896 106.576C99.0853 107.621 98.68 108.976 98.68 110.64C98.68 111.749 98.8613 112.731 99.224 113.584C99.608 114.437 100.12 115.109 100.76 115.6C101.421 116.091 102.168 116.336 103 116.336ZM120.568 118.224C119.309 118.224 118.349 117.936 117.688 117.36C117.048 116.784 116.621 115.899 116.408 114.704C116.195 113.488 116.12 111.941 116.184 110.064L116.376 105.264H113.24V103.376H116.44L116.568 99.632L118.968 99.344L119.288 99.312L119.32 99.536C119.213 99.6853 119.117 99.8347 119.032 99.984C118.968 100.133 118.915 100.389 118.872 100.752L118.648 103.376H123.768V105.264H118.68L118.456 110.224C118.392 111.845 118.435 113.104 118.584 114C118.733 114.875 119 115.483 119.384 115.824C119.768 116.144 120.28 116.304 120.92 116.304C121.624 116.304 122.243 116.165 122.776 115.888C123.331 115.611 123.907 115.259 124.504 114.832L125.208 116.656C124.483 117.189 123.736 117.584 122.968 117.84C122.2 118.096 121.4 118.224 120.568 118.224ZM130.2 118V116.144H133.944V105.232H130.392V103.376H136.248V116.144H139.672V118H130.2ZM134.968 100.304C134.52 100.304 134.136 100.144 133.816 99.824C133.496 99.504 133.336 99.12 133.336 98.672C133.336 98.2027 133.485 97.808 133.784 97.488C134.104 97.168 134.499 97.008 134.968 97.008C135.416 97.008 135.8 97.1787 136.12 97.52C136.461 97.84 136.632 98.224 136.632 98.672C136.632 99.12 136.461 99.504 136.12 99.824C135.8 100.144 135.416 100.304 134.968 100.304ZM145.304 118V103.376H147.544V105.968C148.099 105.072 148.813 104.357 149.688 103.824C150.584 103.291 151.523 103.024 152.504 103.024C153.699 103.024 154.712 103.493 155.544 104.432C156.376 105.349 156.792 106.917 156.792 109.136V118H154.552V109.2C154.552 107.664 154.285 106.587 153.752 105.968C153.24 105.349 152.611 105.04 151.864 105.04C151.224 105.04 150.563 105.232 149.88 105.616C149.219 105.979 148.664 106.501 148.216 107.184C147.768 107.845 147.544 108.645 147.544 109.584V118H145.304ZM166.232 113.04C165.4 113.04 164.643 112.891 163.96 112.592C163.576 113.061 163.384 113.509 163.384 113.936C163.384 114.448 163.704 114.821 164.344 115.056C164.984 115.269 166.157 115.376 167.864 115.376C169.357 115.376 170.488 115.536 171.256 115.856C172.024 116.176 172.547 116.613 172.824 117.168C173.101 117.723 173.24 118.363 173.24 119.088C173.24 119.835 173.037 120.549 172.632 121.232C172.227 121.915 171.555 122.459 170.616 122.864C169.699 123.291 168.461 123.504 166.904 123.504C164.856 123.504 163.224 123.184 162.008 122.544C160.813 121.925 160.216 120.987 160.216 119.728C160.216 118.939 160.44 118.267 160.888 117.712C161.336 117.136 161.869 116.709 162.488 116.432C161.784 115.963 161.432 115.312 161.432 114.48C161.432 114.011 161.549 113.552 161.784 113.104C162.019 112.656 162.339 112.219 162.744 111.792C161.656 110.832 161.112 109.541 161.112 107.92C161.112 106.981 161.315 106.128 161.72 105.36C162.147 104.592 162.744 103.984 163.512 103.536C164.28 103.067 165.187 102.832 166.232 102.832C167.021 102.832 167.725 102.971 168.344 103.248C168.984 103.504 169.528 103.867 169.976 104.336C170.531 103.824 171.117 103.461 171.736 103.248C172.355 103.013 173.08 102.928 173.912 102.992L174.2 104.88C173.56 104.816 172.952 104.827 172.376 104.912C171.821 104.997 171.299 105.2 170.808 105.52C171.171 106.245 171.352 107.045 171.352 107.92C171.352 108.859 171.139 109.723 170.712 110.512C170.307 111.28 169.72 111.899 168.952 112.368C168.205 112.816 167.299 113.04 166.232 113.04ZM166.232 111.12C167.171 111.12 167.939 110.811 168.536 110.192C169.133 109.552 169.432 108.795 169.432 107.92C169.432 107.045 169.133 106.299 168.536 105.68C167.939 105.04 167.171 104.72 166.232 104.72C165.315 104.72 164.547 105.04 163.928 105.68C163.331 106.299 163.032 107.045 163.032 107.92C163.032 108.795 163.331 109.552 163.928 110.192C164.547 110.811 165.315 111.12 166.232 111.12ZM162.328 119.472C162.328 120.197 162.733 120.763 163.544 121.168C164.376 121.573 165.507 121.776 166.936 121.776C168.387 121.776 169.443 121.552 170.104 121.104C170.787 120.677 171.128 120.123 171.128 119.44C171.128 118.971 171.043 118.587 170.872 118.288C170.701 117.989 170.349 117.765 169.816 117.616C169.283 117.467 168.472 117.392 167.384 117.392C166.637 117.392 165.955 117.36 165.336 117.296C164.739 117.232 164.195 117.125 163.704 116.976C163.213 117.317 162.861 117.659 162.648 118C162.435 118.363 162.328 118.853 162.328 119.472Z" fill="black"/>
</svg>
