<svg width="42" height="42" viewBox="0 0 42 42" fill="none" xmlns="http://www.w3.org/2000/svg">
<path fill-rule="evenodd" clip-rule="evenodd" d="M21 0C9.40094 0 0 9.63891 0 21.5316C0 31.0431 6.01534 39.1147 14.3614 41.9643C15.4121 42.1586 15.7911 41.4959 15.7911 40.926C15.7911 40.4143 15.7742 39.0586 15.7679 37.2647C9.92521 38.5643 8.6914 34.3762 8.6914 34.3762C7.73972 31.8893 6.36064 31.2266 6.36064 31.2266C4.45518 29.8903 6.50592 29.9205 6.50592 29.9205C8.6156 30.0717 9.72097 32.1398 9.72097 32.1398C11.5948 35.4297 14.6394 34.4799 15.8311 33.9294C16.0227 32.537 16.5701 31.5871 17.168 31.0496C12.5065 30.5077 7.60497 28.6598 7.60497 20.4068C7.60497 18.0603 8.424 16.1346 9.76098 14.6321C9.54833 14.086 8.82194 11.8948 9.96942 8.93299C9.96942 8.93299 11.7317 8.35228 15.7426 11.1371C17.4228 10.66 19.2146 10.4204 20.9979 10.4117C22.7854 10.4204 24.5793 10.66 26.2532 11.1371C30.2662 8.35012 32.0264 8.93299 32.0264 8.93299C33.1739 11.8948 32.4538 14.086 32.2348 14.6321C33.5823 16.1346 34.3908 18.0581 34.3908 20.4068C34.3908 28.6814 29.4851 30.4991 24.8067 31.0323C25.5541 31.6972 26.2279 33.0097 26.2279 35.0174C26.2279 37.8972 26.2026 40.22 26.2026 40.926C26.2026 41.5023 26.5774 42.1716 27.6491 41.96C35.991 39.1061 42 31.0409 42 21.5316C42 9.63891 32.5991 0 21 0Z" fill="#FFFDFD"/>
</svg>
