<svg width="57" height="57" viewBox="0 0 57 57" fill="none" xmlns="http://www.w3.org/2000/svg">
<path d="M28.4976 17.5204C22.4319 17.5204 17.518 22.4366 17.518 28.5C17.518 34.5658 22.4319 39.482 28.4976 39.482C34.5586 39.482 39.4773 34.5658 39.4773 28.5C39.4773 22.4366 34.5586 17.5204 28.4976 17.5204ZM28.4976 35.6345C24.5575 35.6345 21.3631 32.4401 21.3631 28.5024C21.3631 24.5623 24.5575 21.3703 28.4976 21.3703C32.4378 21.3703 35.6274 24.5623 35.6274 28.5024C35.6274 32.4401 32.4378 35.6345 28.4976 35.6345Z" fill="#FFF9F9"/>
<path d="M39.9143 19.6769C41.3282 19.6769 42.4745 18.5306 42.4745 17.1166C42.4745 15.7027 41.3282 14.5564 39.9143 14.5564C38.5003 14.5564 37.354 15.7027 37.354 17.1166C37.354 18.5306 38.5003 19.6769 39.9143 19.6769Z" fill="#FFF9F9"/>
<path d="M48.7659 14.5136C47.652 11.6422 45.3839 9.37172 42.5125 8.26259C40.8524 7.63797 39.0972 7.30309 37.3207 7.26509C35.0336 7.16534 34.3092 7.13684 28.5095 7.13684C22.7097 7.13684 21.9664 7.13684 19.6982 7.26509C17.9265 7.30072 16.1714 7.63559 14.5112 8.26259C11.6375 9.37172 9.36937 11.6422 8.25787 14.5136C7.63325 16.1761 7.29837 17.9288 7.26275 19.7053C7.16062 21.9901 7.12975 22.7145 7.12975 28.5166C7.12975 34.3163 7.12975 35.055 7.26275 37.3278C7.29837 39.1043 7.63325 40.8571 8.25787 42.522C9.37175 45.391 11.6399 47.6615 14.5136 48.773C16.1666 49.419 17.9217 49.7847 19.703 49.8417C21.9901 49.9415 22.7145 49.9723 28.5142 49.9723C34.314 49.9723 35.0574 49.9723 37.3255 49.8417C39.0996 49.8061 40.8547 49.4688 42.5172 48.8466C45.3886 47.7327 47.6567 45.4646 48.7706 42.5932C49.3952 40.9307 49.7301 39.178 49.7657 37.4015C49.8679 35.1167 49.8987 34.3923 49.8987 28.5902C49.8987 22.7881 49.8987 22.0518 49.7657 19.779C49.7349 17.9787 49.4024 16.1951 48.7659 14.5136ZM45.8731 37.1521C45.8565 38.5201 45.6095 39.8762 45.1345 41.1611C44.4101 43.0302 42.9352 44.5075 41.0685 45.2247C39.7979 45.6973 38.4584 45.9443 37.1022 45.9633C34.846 46.0678 34.2095 46.094 28.424 46.094C22.6337 46.094 22.0424 46.094 19.7434 45.9633C18.392 45.9467 17.0477 45.6973 15.7795 45.2247C13.9056 44.5098 12.4212 43.0326 11.6969 41.1611C11.2314 39.8928 10.9796 38.551 10.9582 37.1972C10.8561 34.941 10.8324 34.3045 10.8324 28.519C10.8324 22.7311 10.8324 22.1397 10.9582 19.8383C10.9749 18.4703 11.2219 17.1166 11.6969 15.8317C12.4212 13.9578 13.9056 12.483 15.7795 11.7657C17.0477 11.2955 18.392 11.0461 19.7434 11.0271C22.002 10.925 22.6361 10.8965 28.424 10.8965C34.2119 10.8965 34.8056 10.8965 37.1022 11.0271C38.4584 11.0437 39.7979 11.2931 41.0685 11.7657C42.9352 12.4853 44.4101 13.9626 45.1345 15.8317C45.6 17.1 45.8517 18.4418 45.8731 19.7956C45.9752 22.0542 46.0014 22.6883 46.0014 28.4762C46.0014 34.2617 46.0014 34.884 45.8992 37.1545H45.8731V37.1521Z" fill="#FFF9F9"/>
</svg>
