<svg width="37" height="37" viewBox="0 0 37 37" fill="none" xmlns="http://www.w3.org/2000/svg">
<path d="M34.9444 0H2.05556C0.918833 0 0 0.920889 0 2.05556V34.9444C0 36.0791 0.918833 37 2.05556 37H34.9444C36.0812 37 37 36.0791 37 34.9444V2.05556C37 0.920889 36.0812 0 34.9444 0ZM10.9746 31.5261H5.48217V13.8688H10.9746V31.5261ZM8.22839 11.4577C6.46883 11.4577 5.04639 10.0311 5.04639 8.27567C5.04639 6.52022 6.46678 5.09367 8.22839 5.09367C9.98383 5.09367 11.4104 6.51817 11.4104 8.27567C11.4104 10.0332 9.98383 11.4577 8.22839 11.4577ZM31.5281 31.5261H26.0418V22.94C26.0418 20.8927 26.0048 18.2595 23.1887 18.2595C20.3315 18.2595 19.8978 20.4918 19.8978 22.7961V31.5281H14.4156V13.8709H19.6778V16.2841H19.7539C20.4836 14.8966 22.2761 13.4331 24.9421 13.4331C30.5003 13.4331 31.5261 17.0878 31.5261 21.8444V31.5261H31.5281Z" fill="#F9F0F0"/>
</svg>
