<svg width="44" height="44" viewBox="0 0 44 44" fill="none" xmlns="http://www.w3.org/2000/svg">
<path fill-rule="evenodd" clip-rule="evenodd" d="M7.33332 7.33325H36.6667C38.6833 7.33325 40.3333 8.98325 40.3333 10.9999V32.9999C40.3333 35.0166 38.6833 36.6666 36.6667 36.6666H7.33332C5.31666 36.6666 3.66666 35.0166 3.66666 32.9999L3.68499 10.9999C3.68499 8.98325 5.31666 7.33325 7.33332 7.33325ZM22.9717 23.2283L35.9333 15.1249C36.3917 14.8316 36.6667 14.3366 36.6667 13.8049C36.6667 12.5766 35.3283 11.8433 34.2833 12.4849L22 20.1666L9.71666 12.4849C8.67166 11.8433 7.33332 12.5766 7.33332 13.8049C7.33332 14.3366 7.60832 14.8316 8.06666 15.1249L21.0283 23.2283C21.615 23.5949 22.385 23.5949 22.9717 23.2283Z" fill="#6180DC"/>
</svg>
